<mxfile host="65bd71144e">
    <diagram id="NkEvDrXUQuuK_nOL2rht" name="Page-1">
        <mxGraphModel dx="1879" dy="1217" grid="0" gridSize="10" guides="1" tooltips="1" connect="1" arrows="1" fold="1" page="1" pageScale="1" pageWidth="850" pageHeight="1100" background="#FFFFFF" math="0" shadow="0">
            <root>
                <mxCell id="0"/>
                <mxCell id="1" parent="0"/>
                <mxCell id="89" value="" style="rounded=0;whiteSpace=wrap;html=1;strokeColor=#FFFFFF;strokeWidth=2;fontColor=#070B1D;fillColor=none;gradientColor=none;" parent="1" vertex="1">
                    <mxGeometry x="4" y="75" width="839" height="955" as="geometry"/>
                </mxCell>
                <mxCell id="65" value="ST{AU}CKTION" style="shape=umlFrame;whiteSpace=wrap;html=1;width=120;height=30;boundedLbl=1;verticalAlign=middle;align=left;spacingLeft=5;strokeWidth=2;swimlaneFillColor=none;perimeterSpacing=1;strokeColor=#070B1D;" parent="1" vertex="1">
                    <mxGeometry x="171" y="113" width="557" height="898" as="geometry"/>
                </mxCell>
                <mxCell id="4" value="&lt;font color=&quot;#070b1d&quot;&gt;A2 - &amp;lt;&amp;lt;Abstract User&amp;gt;&amp;gt;&lt;br&gt;&lt;/font&gt;" style="shape=umlActor;verticalLabelPosition=bottom;verticalAlign=top;html=1;strokeColor=#070B1D;strokeWidth=2;fillColor=#070B1D;gradientColor=none;" parent="1" vertex="1">
                    <mxGeometry x="56" y="226" width="30" height="60" as="geometry"/>
                </mxCell>
                <mxCell id="16" value="U7 - Manage location" style="ellipse;whiteSpace=wrap;html=1;strokeColor=#000000;strokeWidth=2;fontColor=#070B1D;fillColor=none;gradientColor=none;" parent="1" vertex="1">
                    <mxGeometry x="365" y="280.5" width="150" height="50" as="geometry"/>
                </mxCell>
                <mxCell id="20" value="U5 - Manage own user information" style="ellipse;whiteSpace=wrap;html=1;strokeColor=#000000;strokeWidth=2;fontColor=#070B1D;fillColor=none;gradientColor=none;" parent="1" vertex="1">
                    <mxGeometry x="544" y="222" width="156" height="58.5" as="geometry"/>
                </mxCell>
                <mxCell id="24" value="U20 -&amp;nbsp; Upload" style="ellipse;whiteSpace=wrap;html=1;strokeColor=#000000;strokeWidth=2;fontColor=#070B1D;fillColor=none;gradientColor=none;" parent="1" vertex="1">
                    <mxGeometry x="541" y="809" width="129" height="59" as="geometry"/>
                </mxCell>
                <mxCell id="28" value="U3 - Login" style="ellipse;whiteSpace=wrap;html=1;strokeColor=#000000;strokeWidth=2;fontColor=#070B1D;fillColor=none;gradientColor=none;" parent="1" vertex="1">
                    <mxGeometry x="223" y="171" width="109" height="49" as="geometry"/>
                </mxCell>
                <mxCell id="29" value="U4 - Logout" style="ellipse;whiteSpace=wrap;html=1;strokeColor=#000000;strokeWidth=2;fontColor=#070B1D;fillColor=none;gradientColor=none;" parent="1" vertex="1">
                    <mxGeometry x="375" y="196.5" width="109" height="49" as="geometry"/>
                </mxCell>
                <mxCell id="31" value="U15 -&amp;nbsp;Bid for photo" style="ellipse;whiteSpace=wrap;html=1;strokeColor=#000000;strokeWidth=2;fontColor=#070B1D;fillColor=none;gradientColor=none;" parent="1" vertex="1">
                    <mxGeometry x="361.5" y="651" width="126.5" height="62" as="geometry"/>
                </mxCell>
                <mxCell id="33" value="&lt;font color=&quot;#070b1d&quot;&gt;A8 - Bank Simulation&lt;br&gt;&lt;/font&gt;" style="shape=umlActor;verticalLabelPosition=bottom;verticalAlign=top;html=1;strokeColor=#070B1D;strokeWidth=2;fillColor=#070B1D;gradientColor=none;" parent="1" vertex="1">
                    <mxGeometry x="772" y="579" width="30" height="60" as="geometry"/>
                </mxCell>
                <mxCell id="34" value="&lt;font color=&quot;#070b1d&quot;&gt;A7 - Google Api&lt;br&gt;&lt;/font&gt;" style="shape=umlActor;verticalLabelPosition=bottom;verticalAlign=top;html=1;strokeColor=#070B1D;strokeWidth=2;fillColor=#070B1D;gradientColor=none;" parent="1" vertex="1">
                    <mxGeometry x="771" y="413" width="30" height="60" as="geometry"/>
                </mxCell>
                <mxCell id="38" value="&lt;font color=&quot;#070b1d&quot;&gt;A3 - System Admin&lt;br&gt;&lt;/font&gt;" style="shape=umlActor;verticalLabelPosition=bottom;verticalAlign=top;html=1;strokeColor=#070B1D;strokeWidth=2;fillColor=#070B1D;gradientColor=none;" parent="1" vertex="1">
                    <mxGeometry x="97" y="363" width="30" height="60" as="geometry"/>
                </mxCell>
                <mxCell id="43" value="U14 - Purchase now" style="ellipse;whiteSpace=wrap;html=1;strokeColor=#000000;strokeWidth=2;fontColor=#070B1D;fillColor=none;gradientColor=none;" parent="1" vertex="1">
                    <mxGeometry x="419.5" y="562" width="124.5" height="62" as="geometry"/>
                </mxCell>
                <mxCell id="48" value="U12 - Vote" style="ellipse;whiteSpace=wrap;html=1;strokeColor=#000000;strokeWidth=2;fontColor=#070B1D;fillColor=none;gradientColor=none;" parent="1" vertex="1">
                    <mxGeometry x="544" y="463" width="123" height="65" as="geometry"/>
                </mxCell>
                <mxCell id="50" value="U17 - Manage watermarked photo" style="ellipse;whiteSpace=wrap;html=1;strokeColor=#000000;strokeWidth=2;fontColor=#070B1D;fillColor=none;gradientColor=none;" parent="1" vertex="1">
                    <mxGeometry x="315" y="730.75" width="173" height="69.5" as="geometry"/>
                </mxCell>
                <mxCell id="69" value="U21 - Approve photo" style="ellipse;whiteSpace=wrap;html=1;strokeColor=#000000;strokeWidth=2;fontColor=#070B1D;fillColor=none;gradientColor=none;" parent="1" vertex="1">
                    <mxGeometry x="478" y="885.5" width="132" height="62.5" as="geometry"/>
                </mxCell>
                <mxCell id="75" value="&lt;font color=&quot;#070b1d&quot;&gt;A5 - Validating Agent&lt;br&gt;&lt;/font&gt;" style="shape=umlActor;verticalLabelPosition=bottom;verticalAlign=top;html=1;strokeColor=#070B1D;strokeWidth=2;fillColor=#070B1D;gradientColor=none;" parent="1" vertex="1">
                    <mxGeometry x="80" y="879" width="30" height="60" as="geometry"/>
                </mxCell>
                <mxCell id="86" value="" style="endArrow=none;html=1;rounded=1;strokeColor=#000000;fontColor=#070B1D;exitX=1;exitY=0.5;exitDx=0;exitDy=0;entryX=0;entryY=0.3333333333333333;entryDx=0;entryDy=0;entryPerimeter=0;" parent="1" source="43" target="33" edge="1">
                    <mxGeometry width="50" height="50" relative="1" as="geometry">
                        <mxPoint x="437" y="822.5" as="sourcePoint"/>
                        <mxPoint x="487" y="772.5" as="targetPoint"/>
                    </mxGeometry>
                </mxCell>
                <mxCell id="94" value="" style="endArrow=none;html=1;strokeColor=#000000;exitX=0.041;exitY=0.768;exitDx=0;exitDy=0;entryX=1;entryY=0.3333333333333333;entryDx=0;entryDy=0;entryPerimeter=0;exitPerimeter=0;" parent="1" source="28" target="4" edge="1">
                    <mxGeometry width="50" height="50" relative="1" as="geometry">
                        <mxPoint x="201" y="249.5" as="sourcePoint"/>
                        <mxPoint x="64" y="248" as="targetPoint"/>
                    </mxGeometry>
                </mxCell>
                <mxCell id="95" value="" style="endArrow=none;html=1;strokeColor=#000000;exitX=0.022;exitY=0.664;exitDx=0;exitDy=0;entryX=1;entryY=0.3333333333333333;entryDx=0;entryDy=0;entryPerimeter=0;exitPerimeter=0;" parent="1" source="29" target="4" edge="1">
                    <mxGeometry width="50" height="50" relative="1" as="geometry">
                        <mxPoint x="201" y="250.5" as="sourcePoint"/>
                        <mxPoint x="62" y="249" as="targetPoint"/>
                    </mxGeometry>
                </mxCell>
                <mxCell id="96" value="" style="endArrow=none;html=1;strokeColor=#000000;exitX=0.04;exitY=0.715;exitDx=0;exitDy=0;entryX=1;entryY=0.3333333333333333;entryDx=0;entryDy=0;entryPerimeter=0;exitPerimeter=0;" parent="1" source="20" target="4" edge="1">
                    <mxGeometry width="50" height="50" relative="1" as="geometry">
                        <mxPoint x="203" y="250.5" as="sourcePoint"/>
                        <mxPoint x="63" y="249" as="targetPoint"/>
                    </mxGeometry>
                </mxCell>
                <mxCell id="97" value="" style="endArrow=none;html=1;strokeColor=#000000;entryX=1;entryY=0.3333333333333333;entryDx=0;entryDy=0;exitX=0.044;exitY=0.733;exitDx=0;exitDy=0;entryPerimeter=0;exitPerimeter=0;" parent="1" source="16" target="38" edge="1">
                    <mxGeometry width="50" height="50" relative="1" as="geometry">
                        <mxPoint x="286" y="373.5" as="sourcePoint"/>
                        <mxPoint x="131.99999999999886" y="372" as="targetPoint"/>
                    </mxGeometry>
                </mxCell>
                <mxCell id="98" value="" style="endArrow=none;html=1;strokeColor=#000000;entryX=1;entryY=0.3333333333333333;entryDx=0;entryDy=0;exitX=0;exitY=0.5;exitDx=0;exitDy=0;entryPerimeter=0;" parent="1" source="69" target="75" edge="1">
                    <mxGeometry width="50" height="50" relative="1" as="geometry">
                        <mxPoint x="286" y="503.5" as="sourcePoint"/>
                        <mxPoint x="131.99999999999886" y="502" as="targetPoint"/>
                    </mxGeometry>
                </mxCell>
                <mxCell id="99" value="" style="endArrow=none;html=1;strokeColor=#000000;entryX=1;entryY=0.3333333333333333;entryDx=0;entryDy=0;exitX=0;exitY=0.5;exitDx=0;exitDy=0;entryPerimeter=0;" parent="1" source="50" target="120" edge="1">
                    <mxGeometry width="50" height="50" relative="1" as="geometry">
                        <mxPoint x="286" y="631.5" as="sourcePoint"/>
                        <mxPoint x="131.99999999999886" y="630" as="targetPoint"/>
                    </mxGeometry>
                </mxCell>
                <mxCell id="101" value="" style="endArrow=none;html=1;strokeColor=#000000;entryX=1;entryY=0.3333333333333333;entryDx=0;entryDy=0;exitX=0;exitY=0.5;exitDx=0;exitDy=0;entryPerimeter=0;" parent="1" source="31" target="120" edge="1">
                    <mxGeometry width="50" height="50" relative="1" as="geometry">
                        <mxPoint x="286" y="766.5" as="sourcePoint"/>
                        <mxPoint x="131.99999999999955" y="792.9999999999998" as="targetPoint"/>
                    </mxGeometry>
                </mxCell>
                <mxCell id="102" value="" style="endArrow=none;html=1;strokeColor=#000000;entryX=1;entryY=0.3333333333333333;entryDx=0;entryDy=0;exitX=0;exitY=0.5;exitDx=0;exitDy=0;entryPerimeter=0;" parent="1" source="43" target="120" edge="1">
                    <mxGeometry width="50" height="50" relative="1" as="geometry">
                        <mxPoint x="286" y="767.5" as="sourcePoint"/>
                        <mxPoint x="131.99999999999955" y="792.9999999999998" as="targetPoint"/>
                    </mxGeometry>
                </mxCell>
                <mxCell id="103" value="U1 - View landing page" style="ellipse;whiteSpace=wrap;html=1;strokeColor=#000000;strokeWidth=2;fontColor=#070B1D;fillColor=none;gradientColor=none;" parent="1" vertex="1">
                    <mxGeometry x="342" y="125.25" width="147" height="54" as="geometry"/>
                </mxCell>
                <mxCell id="105" value="&lt;font color=&quot;#070b1d&quot;&gt;A1 - Guest User&lt;br&gt;&lt;/font&gt;" style="shape=umlActor;verticalLabelPosition=bottom;verticalAlign=top;html=1;strokeColor=#070B1D;strokeWidth=2;fillColor=#070B1D;gradientColor=none;" parent="1" vertex="1">
                    <mxGeometry x="89" y="136.5" width="30" height="60" as="geometry"/>
                </mxCell>
                <mxCell id="106" value="" style="endArrow=none;html=1;strokeColor=#000000;exitX=0;exitY=0.5;exitDx=0;exitDy=0;entryX=1;entryY=0.3333333333333333;entryDx=0;entryDy=0;entryPerimeter=0;exitPerimeter=0;" parent="1" source="103" target="105" edge="1">
                    <mxGeometry width="50" height="50" relative="1" as="geometry">
                        <mxPoint x="310.99999999999864" y="109" as="sourcePoint"/>
                        <mxPoint x="66" y="171.5" as="targetPoint"/>
                    </mxGeometry>
                </mxCell>
                <mxCell id="112" value="" style="edgeStyle=none;html=1;endSize=12;endArrow=block;endFill=0;strokeColor=#000000;exitX=0;exitY=0.3333333333333333;exitDx=0;exitDy=0;exitPerimeter=0;" parent="1" source="38" edge="1">
                    <mxGeometry width="160" relative="1" as="geometry">
                        <mxPoint x="-116" y="339.5" as="sourcePoint"/>
                        <mxPoint x="74" y="314" as="targetPoint"/>
                        <Array as="points">
                            <mxPoint x="74" y="363"/>
                        </Array>
                    </mxGeometry>
                </mxCell>
                <mxCell id="114" value="" style="edgeStyle=none;html=1;endSize=12;endArrow=block;endFill=0;strokeColor=#000000;exitX=0;exitY=0.3333333333333333;exitDx=0;exitDy=0;exitPerimeter=0;" parent="1" source="120" edge="1">
                    <mxGeometry width="160" relative="1" as="geometry">
                        <mxPoint x="92" y="561" as="sourcePoint"/>
                        <mxPoint x="51" y="315" as="targetPoint"/>
                        <Array as="points">
                            <mxPoint x="53" y="644"/>
                        </Array>
                    </mxGeometry>
                </mxCell>
                <mxCell id="117" value="" style="endArrow=none;html=1;rounded=1;strokeColor=#000000;fontColor=#070B1D;exitX=1;exitY=0;exitDx=0;exitDy=0;entryX=0;entryY=0.3333333333333333;entryDx=0;entryDy=0;entryPerimeter=0;" parent="1" source="31" target="33" edge="1">
                    <mxGeometry width="50" height="50" relative="1" as="geometry">
                        <mxPoint x="414.00000000001137" y="752.5000000000002" as="sourcePoint"/>
                        <mxPoint x="703" y="770" as="targetPoint"/>
                    </mxGeometry>
                </mxCell>
                <mxCell id="120" value="&lt;font color=&quot;#070b1d&quot;&gt;A4 - Registered User&lt;br&gt;&lt;/font&gt;" style="shape=umlActor;verticalLabelPosition=bottom;verticalAlign=top;html=1;strokeColor=#070B1D;strokeWidth=2;fillColor=#070B1D;gradientColor=none;" parent="1" vertex="1">
                    <mxGeometry x="97" y="658" width="30" height="60" as="geometry"/>
                </mxCell>
                <mxCell id="130" value="U10 - Request to create location" style="ellipse;whiteSpace=wrap;html=1;strokeColor=#000000;strokeWidth=2;fontColor=#070B1D;fillColor=none;gradientColor=none;" parent="1" vertex="1">
                    <mxGeometry x="194" y="404" width="149" height="63" as="geometry"/>
                </mxCell>
                <mxCell id="131" value="U22 -&amp;nbsp;Approve location" style="ellipse;whiteSpace=wrap;html=1;strokeColor=#000000;strokeWidth=2;fontColor=#070B1D;fillColor=none;gradientColor=none;" parent="1" vertex="1">
                    <mxGeometry x="279" y="924" width="158.5" height="74" as="geometry"/>
                </mxCell>
                <mxCell id="135" value="" style="endArrow=none;html=1;strokeColor=#000000;entryX=1;entryY=0.3333333333333333;entryDx=0;entryDy=0;exitX=0.032;exitY=0.328;exitDx=0;exitDy=0;entryPerimeter=0;exitPerimeter=0;" parent="1" source="131" target="75" edge="1">
                    <mxGeometry width="50" height="50" relative="1" as="geometry">
                        <mxPoint x="430.49999999999864" y="966.25" as="sourcePoint"/>
                        <mxPoint x="137" y="922.9999999999998" as="targetPoint"/>
                    </mxGeometry>
                </mxCell>
                <mxCell id="137" value="U11 -&amp;nbsp;Display map" style="ellipse;whiteSpace=wrap;html=1;strokeColor=#000000;strokeWidth=2;fontColor=#070B1D;fillColor=none;gradientColor=none;" parent="1" vertex="1">
                    <mxGeometry x="354.5" y="418" width="126.5" height="55" as="geometry"/>
                </mxCell>
                <mxCell id="138" value="" style="endArrow=none;html=1;strokeColor=#000000;exitX=0.084;exitY=0.787;exitDx=0;exitDy=0;entryX=1;entryY=0.3333333333333333;entryDx=0;entryDy=0;entryPerimeter=0;exitPerimeter=0;" parent="1" source="137" target="120" edge="1">
                    <mxGeometry width="50" height="50" relative="1" as="geometry">
                        <mxPoint x="307.9999999999877" y="562" as="sourcePoint"/>
                        <mxPoint x="125" y="624" as="targetPoint"/>
                    </mxGeometry>
                </mxCell>
                <mxCell id="139" value="" style="endArrow=none;html=1;strokeColor=#000000;entryX=0;entryY=0.3333333333333333;entryDx=0;entryDy=0;entryPerimeter=0;exitX=0.987;exitY=0.361;exitDx=0;exitDy=0;exitPerimeter=0;" parent="1" source="137" target="34" edge="1">
                    <mxGeometry width="50" height="50" relative="1" as="geometry">
                        <mxPoint x="559" y="495" as="sourcePoint"/>
                        <mxPoint x="136.99999999999955" y="635" as="targetPoint"/>
                    </mxGeometry>
                </mxCell>
                <mxCell id="146" value="" style="endArrow=none;html=1;strokeColor=#000000;exitX=0.061;exitY=0.716;exitDx=0;exitDy=0;entryX=1;entryY=0.3333333333333333;entryDx=0;entryDy=0;entryPerimeter=0;exitPerimeter=0;" parent="1" source="130" target="120" edge="1">
                    <mxGeometry width="50" height="50" relative="1" as="geometry">
                        <mxPoint x="291.9999999999877" y="465.25" as="sourcePoint"/>
                        <mxPoint x="112.99999999999955" y="580.75" as="targetPoint"/>
                    </mxGeometry>
                </mxCell>
                <mxCell id="147" value="&lt;font color=&quot;#070b1d&quot;&gt;A6 - Timer&lt;br&gt;&lt;/font&gt;" style="shape=umlActor;verticalLabelPosition=bottom;verticalAlign=top;html=1;strokeColor=#070B1D;strokeWidth=2;fillColor=#070B1D;gradientColor=none;" parent="1" vertex="1">
                    <mxGeometry x="770" y="134" width="30" height="60" as="geometry"/>
                </mxCell>
                <mxCell id="151" value="U2 -&amp;nbsp;&amp;nbsp;Manage auction time" style="ellipse;whiteSpace=wrap;html=1;strokeColor=#000000;strokeWidth=2;fontColor=#070B1D;fillColor=none;gradientColor=none;" parent="1" vertex="1">
                    <mxGeometry x="534.5" y="125.25" width="156" height="58.5" as="geometry"/>
                </mxCell>
                <mxCell id="155" value="" style="endArrow=none;html=1;strokeColor=#000000;exitX=0;exitY=0.3333333333333333;exitDx=0;exitDy=0;entryX=1;entryY=0.5;entryDx=0;entryDy=0;exitPerimeter=0;" parent="1" source="147" target="151" edge="1">
                    <mxGeometry width="50" height="50" relative="1" as="geometry">
                        <mxPoint x="910.9999999999882" y="380.5" as="sourcePoint"/>
                        <mxPoint x="625" y="358" as="targetPoint"/>
                    </mxGeometry>
                </mxCell>
                <mxCell id="156" value="U6 - Manage all user information" style="ellipse;whiteSpace=wrap;html=1;strokeColor=#000000;strokeWidth=2;fontColor=#070B1D;fillColor=none;gradientColor=none;" parent="1" vertex="1">
                    <mxGeometry x="194" y="277" width="148" height="49" as="geometry"/>
                </mxCell>
                <mxCell id="157" value="" style="endArrow=none;html=1;strokeColor=#000000;entryX=1;entryY=0.3333333333333333;entryDx=0;entryDy=0;exitX=0;exitY=0.5;exitDx=0;exitDy=0;entryPerimeter=0;" parent="1" source="156" target="38" edge="1">
                    <mxGeometry width="50" height="50" relative="1" as="geometry">
                        <mxPoint x="301.999999999995" y="360.50000000000045" as="sourcePoint"/>
                        <mxPoint x="137" y="393" as="targetPoint"/>
                    </mxGeometry>
                </mxCell>
                <mxCell id="158" value="U8 - Manage auction" style="ellipse;whiteSpace=wrap;html=1;strokeColor=#000000;strokeWidth=2;fontColor=#070B1D;fillColor=none;gradientColor=none;" parent="1" vertex="1">
                    <mxGeometry x="544" y="292" width="148" height="49" as="geometry"/>
                </mxCell>
                <mxCell id="159" value="" style="endArrow=none;html=1;strokeColor=#000000;entryX=1;entryY=0.3333333333333333;entryDx=0;entryDy=0;exitX=0.023;exitY=0.666;exitDx=0;exitDy=0;entryPerimeter=0;exitPerimeter=0;" parent="1" source="158" target="38" edge="1">
                    <mxGeometry width="50" height="50" relative="1" as="geometry">
                        <mxPoint x="138" y="409.5" as="sourcePoint"/>
                        <mxPoint x="-21" y="419" as="targetPoint"/>
                    </mxGeometry>
                </mxCell>
                <mxCell id="160" value="U9 - Manage all watermarked photo" style="ellipse;whiteSpace=wrap;html=1;strokeColor=#000000;strokeWidth=2;fontColor=#070B1D;fillColor=none;gradientColor=none;" parent="1" vertex="1">
                    <mxGeometry x="410" y="346" width="185" height="58" as="geometry"/>
                </mxCell>
                <mxCell id="161" value="" style="endArrow=none;html=1;strokeColor=#000000;entryX=1;entryY=0.3333333333333333;entryDx=0;entryDy=0;exitX=0;exitY=0.5;exitDx=0;exitDy=0;entryPerimeter=0;" parent="1" source="160" target="38" edge="1">
                    <mxGeometry width="50" height="50" relative="1" as="geometry">
                        <mxPoint x="254.5" y="442.5" as="sourcePoint"/>
                        <mxPoint x="95.5" y="452" as="targetPoint"/>
                    </mxGeometry>
                </mxCell>
                <mxCell id="165" value="U13 - Display notification" style="ellipse;whiteSpace=wrap;html=1;strokeColor=#000000;strokeWidth=2;fontColor=#070B1D;fillColor=none;gradientColor=none;" parent="1" vertex="1">
                    <mxGeometry x="305" y="503" width="126.5" height="62" as="geometry"/>
                </mxCell>
                <mxCell id="166" value="" style="endArrow=none;html=1;strokeColor=#000000;entryX=1;entryY=0.3333333333333333;entryDx=0;entryDy=0;exitX=0;exitY=1;exitDx=0;exitDy=0;entryPerimeter=0;" parent="1" source="165" target="120" edge="1">
                    <mxGeometry width="50" height="50" relative="1" as="geometry">
                        <mxPoint x="274" y="913.5" as="sourcePoint"/>
                        <mxPoint x="115" y="825" as="targetPoint"/>
                    </mxGeometry>
                </mxCell>
                <mxCell id="178" value="" style="endArrow=none;html=1;strokeColor=#000000;exitX=0;exitY=0.5;exitDx=0;exitDy=0;entryX=1;entryY=0.3333333333333333;entryDx=0;entryDy=0;entryPerimeter=0;" parent="1" source="179" target="120" edge="1">
                    <mxGeometry width="50" height="50" relative="1" as="geometry">
                        <mxPoint x="-51.99999999999818" y="962.75" as="sourcePoint"/>
                        <mxPoint x="-44" y="811" as="targetPoint"/>
                    </mxGeometry>
                </mxCell>
                <mxCell id="179" value="U19 - Manage purchase photo" style="ellipse;whiteSpace=wrap;html=1;strokeColor=#000000;strokeWidth=2;fontColor=#070B1D;fillColor=none;gradientColor=none;" parent="1" vertex="1">
                    <mxGeometry x="319" y="816" width="180" height="71" as="geometry"/>
                </mxCell>
                <mxCell id="180" value="U18 -&amp;nbsp; Take photo" style="ellipse;whiteSpace=wrap;html=1;strokeColor=#000000;strokeWidth=2;fontColor=#070B1D;fillColor=none;gradientColor=none;" parent="1" vertex="1">
                    <mxGeometry x="548" y="736" width="129" height="59" as="geometry"/>
                </mxCell>
                <mxCell id="181" value="U16 -&amp;nbsp; CRUD photo detail" style="ellipse;whiteSpace=wrap;html=1;strokeColor=#000000;strokeWidth=2;fontColor=#070B1D;fillColor=none;gradientColor=none;" parent="1" vertex="1">
                    <mxGeometry x="541" y="658" width="129" height="59" as="geometry"/>
                </mxCell>
                <mxCell id="185" value="" style="edgeStyle=none;html=1;endSize=12;endArrow=block;endFill=0;strokeColor=#000000;entryX=0.972;entryY=0.305;entryDx=0;entryDy=0;exitX=0;exitY=0.5;exitDx=0;exitDy=0;entryPerimeter=0;" parent="1" source="181" target="50" edge="1">
                    <mxGeometry width="160" relative="1" as="geometry">
                        <mxPoint x="443" y="969.5" as="sourcePoint"/>
                        <mxPoint x="447" y="860.5" as="targetPoint"/>
                        <Array as="points"/>
                    </mxGeometry>
                </mxCell>
                <mxCell id="186" value="" style="endArrow=none;html=1;strokeColor=#000000;exitX=1;exitY=0.3333333333333333;exitDx=0;exitDy=0;entryX=0.033;entryY=0.754;entryDx=0;entryDy=0;exitPerimeter=0;entryPerimeter=0;" parent="1" source="120" target="48" edge="1">
                    <mxGeometry width="50" height="50" relative="1" as="geometry">
                        <mxPoint x="-51.99999999999818" y="962.75" as="sourcePoint"/>
                        <mxPoint x="-44" y="811" as="targetPoint"/>
                    </mxGeometry>
                </mxCell>
                <mxCell id="187" value="" style="edgeStyle=none;html=1;endSize=12;endArrow=block;endFill=0;strokeColor=#000000;entryX=1;entryY=0.5;entryDx=0;entryDy=0;exitX=0;exitY=0.5;exitDx=0;exitDy=0;" parent="1" source="180" target="50" edge="1">
                    <mxGeometry width="160" relative="1" as="geometry">
                        <mxPoint x="470.00000000001046" y="982.5499999999995" as="sourcePoint"/>
                        <mxPoint x="405.82699999999977" y="897.4564999999996" as="targetPoint"/>
                        <Array as="points"/>
                    </mxGeometry>
                </mxCell>
                <mxCell id="188" value="" style="edgeStyle=none;html=1;endSize=12;endArrow=block;endFill=0;strokeColor=#000000;entryX=0.986;entryY=0.705;entryDx=0;entryDy=0;entryPerimeter=0;exitX=0.01;exitY=0.336;exitDx=0;exitDy=0;exitPerimeter=0;" parent="1" source="24" target="50" edge="1">
                    <mxGeometry width="160" relative="1" as="geometry">
                        <mxPoint x="467.4390000000003" y="1078.9399999999996" as="sourcePoint"/>
                        <mxPoint x="402.0029999999997" y="967.0025" as="targetPoint"/>
                        <Array as="points"/>
                    </mxGeometry>
                </mxCell>
            </root>
        </mxGraphModel>
    </diagram>
</mxfile>